<mxfile host="app.diagrams.net" agent="Mozilla/5.0 (Windows NT 10.0; Win64; x64) AppleWebKit/537.36 (KHTML, like Gecko) Chrome/131.0.0.0 Safari/537.36" version="25.0.3">
  <diagram name="Страница — 1" id="XH2O2dO6xaTBt7mQX8lJ">
    <mxGraphModel dx="1978" dy="663" grid="0" gridSize="10" guides="1" tooltips="1" connect="1" arrows="1" fold="1" page="0" pageScale="1" pageWidth="827" pageHeight="1169" math="0" shadow="0">
      <root>
        <mxCell id="0" />
        <mxCell id="1" parent="0" />
        <mxCell id="y93zuegSAKAwOxj-r-2s-1" value="Система" style="shape=umlLifeline;perimeter=lifelinePerimeter;whiteSpace=wrap;html=1;container=1;collapsible=0;recursiveResize=0;outlineConnect=0;rounded=1;shadow=0;comic=0;labelBackgroundColor=none;strokeWidth=1;fontFamily=Verdana;fontSize=12;align=center;fillColor=#dae8fc;strokeColor=#6c8ebf;" vertex="1" parent="1">
          <mxGeometry x="295" y="80" width="100" height="631" as="geometry" />
        </mxCell>
        <mxCell id="y93zuegSAKAwOxj-r-2s-3" value="успешно" style="html=1;verticalAlign=bottom;endArrow=block;labelBackgroundColor=none;fontFamily=Verdana;fontSize=12;edgeStyle=elbowEdgeStyle;elbow=vertical;fillColor=#dae8fc;strokeColor=#6c8ebf;" edge="1" parent="y93zuegSAKAwOxj-r-2s-1" target="y93zuegSAKAwOxj-r-2s-20">
          <mxGeometry x="0.3179" relative="1" as="geometry">
            <mxPoint x="-105" y="248" as="sourcePoint" />
            <mxPoint x="104" y="248" as="targetPoint" />
            <Array as="points">
              <mxPoint x="49" y="248" />
            </Array>
            <mxPoint as="offset" />
          </mxGeometry>
        </mxCell>
        <mxCell id="y93zuegSAKAwOxj-r-2s-4" value="повтор" style="html=1;verticalAlign=bottom;endArrow=open;dashed=1;endSize=8;labelBackgroundColor=none;fontFamily=Verdana;fontSize=12;edgeStyle=elbowEdgeStyle;elbow=vertical;fillColor=#dae8fc;strokeColor=#6c8ebf;" edge="1" parent="y93zuegSAKAwOxj-r-2s-1" target="y93zuegSAKAwOxj-r-2s-20">
          <mxGeometry relative="1" as="geometry">
            <mxPoint x="-85" y="218" as="targetPoint" />
            <Array as="points">
              <mxPoint x="-10" y="218" />
              <mxPoint x="20" y="218" />
            </Array>
            <mxPoint x="45" y="218" as="sourcePoint" />
          </mxGeometry>
        </mxCell>
        <mxCell id="y93zuegSAKAwOxj-r-2s-7" value="Пользователь входит в систему" style="html=1;verticalAlign=bottom;endArrow=block;entryX=0;entryY=0;labelBackgroundColor=none;fontFamily=Verdana;fontSize=12;edgeStyle=elbowEdgeStyle;elbow=horizontal;fillColor=#dae8fc;strokeColor=#6c8ebf;" edge="1" parent="y93zuegSAKAwOxj-r-2s-1">
          <mxGeometry relative="1" as="geometry">
            <mxPoint x="-261" y="193.42105263157896" as="sourcePoint" />
            <mxPoint x="45" y="193.00000000000034" as="targetPoint" />
          </mxGeometry>
        </mxCell>
        <mxCell id="y93zuegSAKAwOxj-r-2s-9" value="Подтверждение заказа" style="html=1;verticalAlign=bottom;endArrow=block;labelBackgroundColor=none;fontFamily=Verdana;fontSize=12;edgeStyle=elbowEdgeStyle;elbow=vertical;fillColor=#dae8fc;strokeColor=#6c8ebf;" edge="1" parent="y93zuegSAKAwOxj-r-2s-1">
          <mxGeometry x="0.0855" y="3" relative="1" as="geometry">
            <mxPoint x="-261.0526315789475" y="423" as="sourcePoint" />
            <mxPoint x="55" y="423" as="targetPoint" />
            <Array as="points">
              <mxPoint x="-17.5" y="423" />
            </Array>
            <mxPoint as="offset" />
          </mxGeometry>
        </mxCell>
        <mxCell id="y93zuegSAKAwOxj-r-2s-10" value=" Изменение корзины" style="html=1;verticalAlign=bottom;endArrow=block;labelBackgroundColor=none;fontFamily=Verdana;fontSize=12;edgeStyle=elbowEdgeStyle;elbow=vertical;fillColor=#dae8fc;strokeColor=#6c8ebf;" edge="1" parent="y93zuegSAKAwOxj-r-2s-1">
          <mxGeometry x="0.0855" y="3" relative="1" as="geometry">
            <mxPoint x="-261.0526315789475" y="381" as="sourcePoint" />
            <mxPoint x="55" y="381" as="targetPoint" />
            <Array as="points">
              <mxPoint x="-17.5" y="381" />
            </Array>
            <mxPoint as="offset" />
          </mxGeometry>
        </mxCell>
        <mxCell id="y93zuegSAKAwOxj-r-2s-12" value="Склад" style="shape=umlLifeline;perimeter=lifelinePerimeter;whiteSpace=wrap;html=1;container=1;collapsible=0;recursiveResize=0;outlineConnect=0;rounded=1;shadow=0;comic=0;labelBackgroundColor=none;strokeWidth=1;fontFamily=Verdana;fontSize=12;align=center;fillColor=#dae8fc;strokeColor=#6c8ebf;" vertex="1" parent="1">
          <mxGeometry x="572" y="80" width="100" height="631" as="geometry" />
        </mxCell>
        <mxCell id="y93zuegSAKAwOxj-r-2s-15" value="Подтверждение заказа и отправка" style="html=1;verticalAlign=bottom;endArrow=block;labelBackgroundColor=none;fontFamily=Verdana;fontSize=12;edgeStyle=elbowEdgeStyle;elbow=horizontal;fillColor=#dae8fc;strokeColor=#6c8ebf;" edge="1" parent="y93zuegSAKAwOxj-r-2s-12">
          <mxGeometry relative="1" as="geometry">
            <mxPoint x="-221" y="155.42105263157896" as="sourcePoint" />
            <mxPoint x="52" y="155" as="targetPoint" />
          </mxGeometry>
        </mxCell>
        <mxCell id="y93zuegSAKAwOxj-r-2s-16" value="Уведомление склада" style="html=1;verticalAlign=bottom;endArrow=block;labelBackgroundColor=none;fontFamily=Verdana;fontSize=12;edgeStyle=elbowEdgeStyle;elbow=vertical;fillColor=#dae8fc;strokeColor=#6c8ebf;" edge="1" parent="y93zuegSAKAwOxj-r-2s-12" target="y93zuegSAKAwOxj-r-2s-17">
          <mxGeometry x="0.0855" y="3" relative="1" as="geometry">
            <mxPoint x="-223.0026315789475" y="508" as="sourcePoint" />
            <mxPoint x="93.04999999999995" y="508" as="targetPoint" />
            <Array as="points">
              <mxPoint x="20.549999999999955" y="508" />
            </Array>
            <mxPoint as="offset" />
          </mxGeometry>
        </mxCell>
        <mxCell id="y93zuegSAKAwOxj-r-2s-17" value="Платежный шлюз" style="shape=umlLifeline;perimeter=lifelinePerimeter;whiteSpace=wrap;html=1;container=1;collapsible=0;recursiveResize=0;outlineConnect=0;rounded=1;shadow=0;comic=0;labelBackgroundColor=none;strokeWidth=1;fontFamily=Verdana;fontSize=12;align=center;fillColor=#dae8fc;strokeColor=#6c8ebf;" vertex="1" parent="1">
          <mxGeometry x="842" y="80" width="100" height="630" as="geometry" />
        </mxCell>
        <mxCell id="y93zuegSAKAwOxj-r-2s-20" value="Пользователь" style="shape=umlLifeline;perimeter=lifelinePerimeter;whiteSpace=wrap;html=1;container=1;collapsible=0;recursiveResize=0;outlineConnect=0;rounded=1;shadow=0;comic=0;labelBackgroundColor=none;strokeWidth=1;fontFamily=Verdana;fontSize=12;align=center;fillColor=#dae8fc;strokeColor=#6c8ebf;" vertex="1" parent="1">
          <mxGeometry x="-21" y="80" width="100" height="632" as="geometry" />
        </mxCell>
        <mxCell id="y93zuegSAKAwOxj-r-2s-23" value="Проверка наличия товаров на складе" style="html=1;verticalAlign=bottom;endArrow=block;labelBackgroundColor=none;fontFamily=Verdana;fontSize=12;edgeStyle=elbowEdgeStyle;elbow=vertical;fillColor=#dae8fc;strokeColor=#6c8ebf;exitX=0.65;exitY=0.605;exitDx=0;exitDy=0;exitPerimeter=0;" edge="1" parent="1">
          <mxGeometry x="0.0026" relative="1" as="geometry">
            <mxPoint x="348" y="426.30499999999984" as="sourcePoint" />
            <mxPoint x="623.0000000000002" y="426.25736842105266" as="targetPoint" />
            <mxPoint as="offset" />
          </mxGeometry>
        </mxCell>
        <mxCell id="y93zuegSAKAwOxj-r-2s-24" value="нет" style="html=1;verticalAlign=bottom;endArrow=open;dashed=1;endSize=8;labelBackgroundColor=none;fontFamily=Verdana;fontSize=12;edgeStyle=elbowEdgeStyle;elbow=horizontal;fillColor=#dae8fc;strokeColor=#6c8ebf;" edge="1" parent="1">
          <mxGeometry relative="1" as="geometry">
            <mxPoint x="343" y="533" as="targetPoint" />
            <Array as="points">
              <mxPoint x="600" y="533" />
              <mxPoint x="630" y="533" />
            </Array>
            <mxPoint x="617" y="533" as="sourcePoint" />
          </mxGeometry>
        </mxCell>
        <mxCell id="y93zuegSAKAwOxj-r-2s-25" value="да" style="html=1;verticalAlign=bottom;endArrow=block;labelBackgroundColor=none;fontFamily=Verdana;fontSize=12;edgeStyle=elbowEdgeStyle;elbow=horizontal;fillColor=#dae8fc;strokeColor=#6c8ebf;exitX=0.663;exitY=0.129;exitDx=0;exitDy=0;exitPerimeter=0;" edge="1" parent="1">
          <mxGeometry relative="1" as="geometry">
            <mxPoint x="621.1800000000001" y="471.99699999999984" as="sourcePoint" />
            <mxPoint x="341.9973684210525" y="472.4178947368421" as="targetPoint" />
          </mxGeometry>
        </mxCell>
        <mxCell id="y93zuegSAKAwOxj-r-2s-26" value="Выбор товара и добавление в корзину" style="html=1;verticalAlign=bottom;endArrow=block;labelBackgroundColor=none;fontFamily=Verdana;fontSize=12;edgeStyle=elbowEdgeStyle;elbow=vertical;fillColor=#dae8fc;strokeColor=#6c8ebf;" edge="1" parent="1">
          <mxGeometry relative="1" as="geometry">
            <mxPoint x="28.447368421052488" y="425" as="sourcePoint" />
            <mxPoint x="350" y="425.47739130434786" as="targetPoint" />
            <Array as="points">
              <mxPoint x="354" y="425" />
            </Array>
          </mxGeometry>
        </mxCell>
        <mxCell id="y93zuegSAKAwOxj-r-2s-28" value="" style="html=1;verticalAlign=bottom;endArrow=open;dashed=1;endSize=8;labelBackgroundColor=none;fontFamily=Verdana;fontSize=12;edgeStyle=elbowEdgeStyle;elbow=horizontal;fillColor=#dae8fc;strokeColor=#6c8ebf;" edge="1" parent="1" source="y93zuegSAKAwOxj-r-2s-12">
          <mxGeometry relative="1" as="geometry">
            <mxPoint x="622" y="483" as="targetPoint" />
            <Array as="points" />
            <mxPoint x="622" y="533" as="sourcePoint" />
          </mxGeometry>
        </mxCell>
        <mxCell id="y93zuegSAKAwOxj-r-2s-29" value="Подверждено" style="html=1;verticalAlign=bottom;endArrow=block;labelBackgroundColor=none;fontFamily=Verdana;fontSize=12;edgeStyle=elbowEdgeStyle;elbow=vertical;exitX=0.663;exitY=0.129;exitDx=0;exitDy=0;exitPerimeter=0;entryX=0.862;entryY=0.792;entryDx=0;entryDy=0;entryPerimeter=0;fillColor=#dae8fc;strokeColor=#6c8ebf;" edge="1" parent="1">
          <mxGeometry relative="1" as="geometry">
            <mxPoint x="341.18000000000006" y="532.9969999999998" as="sourcePoint" />
            <mxPoint x="32.61999999999989" y="532.248" as="targetPoint" />
          </mxGeometry>
        </mxCell>
        <mxCell id="y93zuegSAKAwOxj-r-2s-30" value="Уведомление об изменении корзины" style="html=1;verticalAlign=bottom;endArrow=open;dashed=1;endSize=8;labelBackgroundColor=none;fontFamily=Verdana;fontSize=12;edgeStyle=elbowEdgeStyle;elbow=horizontal;fillColor=#dae8fc;strokeColor=#6c8ebf;" edge="1" parent="1" source="y93zuegSAKAwOxj-r-2s-1">
          <mxGeometry relative="1" as="geometry">
            <mxPoint x="32" y="556" as="targetPoint" />
            <Array as="points">
              <mxPoint x="289" y="556" />
              <mxPoint x="319" y="556" />
            </Array>
            <mxPoint x="306" y="556" as="sourcePoint" />
          </mxGeometry>
        </mxCell>
        <mxCell id="y93zuegSAKAwOxj-r-2s-31" value="Выбор способа оплаты" style="html=1;verticalAlign=bottom;endArrow=block;entryX=0;entryY=0;labelBackgroundColor=none;fontFamily=Verdana;fontSize=12;edgeStyle=elbowEdgeStyle;elbow=horizontal;fillColor=#dae8fc;strokeColor=#6c8ebf;" edge="1" parent="1">
          <mxGeometry relative="1" as="geometry">
            <mxPoint x="34" y="141.42105263157896" as="sourcePoint" />
            <mxPoint x="340" y="141.00000000000034" as="targetPoint" />
          </mxGeometry>
        </mxCell>
        <mxCell id="y93zuegSAKAwOxj-r-2s-32" value="Обработка онлайн-оплаты" style="html=1;verticalAlign=bottom;endArrow=block;labelBackgroundColor=none;fontFamily=Verdana;fontSize=12;edgeStyle=elbowEdgeStyle;elbow=horizontal;fillColor=#dae8fc;strokeColor=#6c8ebf;" edge="1" parent="1" target="y93zuegSAKAwOxj-r-2s-17">
          <mxGeometry relative="1" as="geometry">
            <mxPoint x="349" y="206.42105263157896" as="sourcePoint" />
            <mxPoint x="655" y="206.00000000000034" as="targetPoint" />
            <Array as="points">
              <mxPoint x="857" y="206" />
            </Array>
          </mxGeometry>
        </mxCell>
        <mxCell id="y93zuegSAKAwOxj-r-2s-33" value="Платеж успешен?" style="html=1;verticalAlign=bottom;endArrow=block;labelBackgroundColor=none;fontFamily=Verdana;fontSize=12;elbow=vertical;edgeStyle=orthogonalEdgeStyle;curved=0;fillColor=#dae8fc;strokeColor=#6c8ebf;rounded=0;" edge="1" parent="1" source="y93zuegSAKAwOxj-r-2s-17" target="y93zuegSAKAwOxj-r-2s-17">
          <mxGeometry x="-0.1887" y="56" relative="1" as="geometry">
            <mxPoint x="898" y="154" as="sourcePoint" />
            <mxPoint x="903" y="192" as="targetPoint" />
            <Array as="points">
              <mxPoint x="953" y="154" />
              <mxPoint x="953" y="192" />
            </Array>
            <mxPoint as="offset" />
          </mxGeometry>
        </mxCell>
        <mxCell id="y93zuegSAKAwOxj-r-2s-34" value="нет" style="html=1;verticalAlign=bottom;endArrow=open;dashed=1;endSize=8;labelBackgroundColor=none;fontFamily=Verdana;fontSize=12;elbow=horizontal;entryX=0.973;entryY=0.012;entryDx=0;entryDy=0;entryPerimeter=0;fillColor=#dae8fc;strokeColor=#6c8ebf;" edge="1" parent="1">
          <mxGeometry relative="1" as="geometry">
            <mxPoint x="349.73" y="140.32000000000005" as="targetPoint" />
            <mxPoint x="888" y="140" as="sourcePoint" />
          </mxGeometry>
        </mxCell>
        <mxCell id="y93zuegSAKAwOxj-r-2s-35" value="Уведомление об ошибке оплаты" style="html=1;verticalAlign=bottom;endArrow=block;labelBackgroundColor=none;fontFamily=Verdana;fontSize=12;edgeStyle=elbowEdgeStyle;elbow=vertical;exitX=1.155;exitY=0.846;exitDx=0;exitDy=0;exitPerimeter=0;fillColor=#dae8fc;strokeColor=#6c8ebf;" edge="1" parent="1">
          <mxGeometry relative="1" as="geometry">
            <mxPoint x="351.54999999999995" y="232.05999999999995" as="sourcePoint" />
            <mxPoint x="33" y="232" as="targetPoint" />
          </mxGeometry>
        </mxCell>
        <mxCell id="y93zuegSAKAwOxj-r-2s-36" value="КОНЕЦ" style="html=1;verticalAlign=bottom;endArrow=open;dashed=1;endSize=8;labelBackgroundColor=none;fontFamily=Verdana;fontSize=12;edgeStyle=elbowEdgeStyle;elbow=horizontal;fillColor=#dae8fc;strokeColor=#6c8ebf;shadow=1;" edge="1" parent="1">
          <mxGeometry relative="1" as="geometry">
            <mxPoint x="31.99736842105249" y="711" as="targetPoint" />
            <Array as="points">
              <mxPoint x="879.55" y="711" />
              <mxPoint x="909.55" y="711" />
            </Array>
            <mxPoint x="896.55" y="711" as="sourcePoint" />
          </mxGeometry>
        </mxCell>
        <mxCell id="y93zuegSAKAwOxj-r-2s-22" value="Выбран онлайн-платеж?" style="html=1;verticalAlign=bottom;endArrow=block;labelBackgroundColor=none;fontFamily=Verdana;fontSize=12;elbow=vertical;edgeStyle=orthogonalEdgeStyle;curved=0;fillColor=#dae8fc;strokeColor=#6c8ebf;rounded=0;" edge="1" parent="1" source="y93zuegSAKAwOxj-r-2s-20" target="y93zuegSAKAwOxj-r-2s-20">
          <mxGeometry x="-0.1887" y="56" relative="1" as="geometry">
            <mxPoint x="34" y="168" as="sourcePoint" />
            <mxPoint x="39" y="206" as="targetPoint" />
            <Array as="points">
              <mxPoint x="89" y="168" />
              <mxPoint x="89" y="206" />
            </Array>
            <mxPoint as="offset" />
          </mxGeometry>
        </mxCell>
        <mxCell id="y93zuegSAKAwOxj-r-2s-6" value="Проверка авторизации" style="html=1;verticalAlign=bottom;endArrow=block;labelBackgroundColor=none;fontFamily=Verdana;fontSize=12;elbow=vertical;edgeStyle=orthogonalEdgeStyle;curved=0;fillColor=#dae8fc;strokeColor=#6c8ebf;rounded=0;" edge="1" parent="1" source="y93zuegSAKAwOxj-r-2s-1" target="y93zuegSAKAwOxj-r-2s-1">
          <mxGeometry x="-0.1887" y="56" relative="1" as="geometry">
            <mxPoint x="350" y="300" as="sourcePoint" />
            <mxPoint x="355" y="338" as="targetPoint" />
            <Array as="points">
              <mxPoint x="405" y="300" />
              <mxPoint x="405" y="338" />
            </Array>
            <mxPoint as="offset" />
          </mxGeometry>
        </mxCell>
        <mxCell id="y93zuegSAKAwOxj-r-2s-13" value="Товары доступны?" style="html=1;verticalAlign=bottom;endArrow=block;labelBackgroundColor=none;fontFamily=Verdana;fontSize=12;elbow=vertical;edgeStyle=orthogonalEdgeStyle;curved=0;fillColor=#dae8fc;strokeColor=#6c8ebf;rounded=0;" edge="1" parent="1" source="y93zuegSAKAwOxj-r-2s-12" target="y93zuegSAKAwOxj-r-2s-12">
          <mxGeometry x="0.3005" y="38" relative="1" as="geometry">
            <mxPoint x="627" y="447" as="sourcePoint" />
            <mxPoint x="632" y="485" as="targetPoint" />
            <Array as="points">
              <mxPoint x="682" y="447" />
              <mxPoint x="682" y="485" />
            </Array>
            <mxPoint x="36" y="-26" as="offset" />
          </mxGeometry>
        </mxCell>
      </root>
    </mxGraphModel>
  </diagram>
</mxfile>
